<svg width="43" height="44" viewBox="0 0 43 44" fill="none" xmlns="http://www.w3.org/2000/svg">
<g clip-path="url(#clip0_14_18)">
<path d="M23.7102 0.5C26.1289 0.50645 27.3564 0.51935 28.4163 0.549449L28.8334 0.564498C29.315 0.581698 29.7901 0.603197 30.3641 0.628997C32.6516 0.736494 34.2124 1.09769 35.5819 1.62872C37.0009 2.17481 38.1962 2.91439 39.3915 4.10761C40.4852 5.18201 41.3311 6.48217 41.8704 7.91732C42.4014 9.28684 42.7626 10.8477 42.8701 13.1374C42.8959 13.7093 42.9174 14.1844 42.9346 14.6682L42.9475 15.0852C42.9797 16.143 42.9926 17.3706 42.9969 19.7893L42.9991 21.3932V24.2096C43.0043 25.7778 42.9878 27.346 42.9496 28.9137L42.9367 29.3308C42.9195 29.8145 42.898 30.2897 42.8722 30.8616C42.7647 33.1513 42.3992 34.71 41.8704 36.0816C41.3311 37.5168 40.4852 38.8169 39.3915 39.8913C38.3172 40.985 37.017 41.831 35.5819 42.3702C34.2124 42.9013 32.6516 43.2625 30.3641 43.37L28.8334 43.4345L28.4163 43.4474C27.3564 43.4775 26.1289 43.4925 23.7102 43.4968L22.1064 43.499H19.2922C17.7233 43.5045 16.1545 43.488 14.5861 43.4495L14.169 43.4366C13.6586 43.4173 13.1484 43.3951 12.6383 43.37C10.3508 43.2625 8.78998 42.9013 7.41835 42.3702C5.98401 41.8307 4.68464 40.9847 3.61089 39.8913C2.51648 38.8172 1.66977 37.517 1.12992 36.0816C0.598893 34.7121 0.237711 33.1513 0.130216 30.8616L0.0657195 29.3308L0.0549704 28.9137C0.0153393 27.346 -0.00257835 25.7778 0.00122285 24.2096V19.7893C-0.00472782 18.2212 0.0110397 16.653 0.0485206 15.0852L0.0635698 14.6682C0.0807689 14.1844 0.102268 13.7093 0.128066 13.1374C0.235561 10.8477 0.596743 9.28899 1.12777 7.91732C1.66888 6.48158 2.51708 5.18137 3.61304 4.10761C4.68617 3.01447 5.98477 2.16852 7.41835 1.62872C8.78998 1.09769 10.3487 0.736494 12.6383 0.628997C13.2102 0.603197 13.6874 0.581698 14.169 0.564498L14.5861 0.551599C16.1538 0.5134 17.7219 0.496915 19.2901 0.50215L23.7102 0.5ZM21.5001 11.2497C18.6492 11.2497 15.915 12.3823 13.8991 14.3983C11.8832 16.4142 10.7507 19.1485 10.7507 21.9995C10.7507 24.8505 11.8832 27.5847 13.8991 29.6007C15.915 31.6167 18.6492 32.7492 21.5001 32.7492C24.3511 32.7492 27.0852 31.6167 29.1012 29.6007C31.1171 27.5847 32.2496 24.8505 32.2496 21.9995C32.2496 19.1485 31.1171 16.4142 29.1012 14.3983C27.0852 12.3823 24.3511 11.2497 21.5001 11.2497ZM21.5001 15.5496C22.3471 15.5495 23.1858 15.7162 23.9684 16.0402C24.751 16.3642 25.4621 16.8392 26.0611 17.438C26.6601 18.0368 27.1353 18.7478 27.4595 19.5302C27.7838 20.3127 27.9507 21.1514 27.9509 21.9984C27.951 22.8454 27.7843 23.6841 27.4603 24.4667C27.1364 25.2493 26.6614 25.9604 26.0626 26.5594C25.4638 27.1585 24.7528 27.6337 23.9704 27.9579C23.1879 28.2822 22.3493 28.4492 21.5023 28.4493C19.7917 28.4493 18.1512 27.7698 16.9417 26.5602C15.7321 25.3506 15.0526 23.7101 15.0526 21.9995C15.0526 20.2889 15.7321 18.6483 16.9417 17.4387C18.1512 16.2292 19.7917 15.5496 21.5023 15.5496M32.7892 8.02482C32.0765 8.02482 31.3929 8.30796 30.889 8.81195C30.385 9.31594 30.1019 9.9995 30.1019 10.7123C30.1019 11.425 30.385 12.1086 30.889 12.6126C31.3929 13.1165 32.0765 13.3997 32.7892 13.3997C33.5019 13.3997 34.1855 13.1165 34.6895 12.6126C35.1935 12.1086 35.4766 11.425 35.4766 10.7123C35.4766 9.9995 35.1935 9.31594 34.6895 8.81195C34.1855 8.30796 33.5019 8.02482 32.7892 8.02482Z" fill="#373737"/>
</g>
<defs>
<clipPath id="clip0_14_18">
<rect width="43" height="43" fill="white" transform="translate(0 0.5)"/>
</clipPath>
</defs>
</svg>
