<svg width="156" height="24" viewBox="0 0 156 24" fill="none" xmlns="http://www.w3.org/2000/svg">
<path d="M25.296 6.36001H5.808V8.95201H22.768V14.712H5.808V23H0.0480003V0.632011H25.296V6.36001Z" fill="#FF0C59"/>
<path d="M33.808 23H28.048V0.632011H33.808V23Z" fill="#FF0C59"/>
<path d="M59.2038 0.632011H64.9637V22.968H58.5958L43.6518 7.51201V23H37.8918V0.632011H44.9958L59.2038 15.32V0.632011Z" fill="#FF0C59"/>
<path d="M92.056 2.61601C95.032 4.69601 96.632 7.86401 96.632 11.8C96.632 19.16 91.288 23.544 82.328 23.544C78.36 23.544 75.096 22.68 72.632 20.984C69.656 18.936 68.056 15.768 68.056 11.8C68.056 4.47201 73.4 0.0880127 82.328 0.0880127C86.328 0.0880127 89.592 0.920012 92.056 2.61601ZM82.328 17.784C90.872 17.784 90.872 13.272 90.872 11.8C90.872 7.83201 87.992 5.81601 82.328 5.81601C73.816 5.81601 73.816 10.328 73.816 11.8C73.816 15.768 76.696 17.784 82.328 17.784Z" fill="#373737"/>
<path d="M127.192 22.968H120.408L116.568 16.536H105.496V22.936H99.7355V0.600012H116.952C119.48 0.600012 121.591 1.17601 123.223 2.29601C125.271 3.70401 126.391 5.91201 126.391 8.56801C126.391 11.608 124.984 13.944 122.552 15.288L127.192 22.968ZM105.496 6.36001V10.776H116.952C120.632 10.776 120.632 9.30401 120.632 8.56801C120.632 7.92801 120.632 6.36001 116.952 6.36001H105.496Z" fill="#373737"/>
<path d="M145.855 0.632011L155.967 23H149.599L147.647 18.776L136.575 18.744L134.559 23H128.095L138.751 0.632011H145.855ZM139.231 13.016H145.151L142.271 6.61601L139.231 13.016Z" fill="#373737"/>
</svg>
