<svg width="20" height="20" viewBox="0 0 20 20" fill="none" xmlns="http://www.w3.org/2000/svg">
<g clip-path="url(#clip0_106_1020)">
<path d="M16.6667 7.5H9.16667C8.24619 7.5 7.5 8.24619 7.5 9.16667V16.6667C7.5 17.5871 8.24619 18.3333 9.16667 18.3333H16.6667C17.5871 18.3333 18.3333 17.5871 18.3333 16.6667V9.16667C18.3333 8.24619 17.5871 7.5 16.6667 7.5Z" stroke="white" stroke-width="2" stroke-linecap="round" stroke-linejoin="round"/>
<path d="M4.16667 12.4998H3.33333C2.89131 12.4998 2.46738 12.3242 2.15482 12.0117C1.84226 11.6991 1.66667 11.2752 1.66667 10.8332V3.33317C1.66667 2.89114 1.84226 2.46722 2.15482 2.15466C2.46738 1.8421 2.89131 1.6665 3.33333 1.6665H10.8333C11.2754 1.6665 11.6993 1.8421 12.0118 2.15466C12.3244 2.46722 12.5 2.89114 12.5 3.33317V4.1665" stroke="white" stroke-width="2" stroke-linecap="round" stroke-linejoin="round"/>
</g>
<defs>
<clipPath id="clip0_106_1020">
<rect width="20" height="20" fill="white"/>
</clipPath>
</defs>
</svg>
