<svg width="20" height="20" viewBox="0 0 20 20" fill="none" xmlns="http://www.w3.org/2000/svg">
<path d="M10 2.49992C8.34852 2.49936 6.74303 3.0439 5.43267 4.04905C4.1223 5.0542 3.18034 6.46375 2.75295 8.05897C2.32555 9.65418 2.43663 11.3459 3.06895 12.8715C3.70126 14.3971 4.81945 15.6714 6.25 16.4966L6.97083 16.9133L6.13667 18.3566L5.415 17.9399C4.02159 17.135 2.86461 15.9775 2.06035 14.5838C1.2561 13.19 0.832912 11.6091 0.833332 9.99992C0.833332 4.93742 4.9375 0.833252 10 0.833252C11.0025 0.833252 11.9683 0.994085 12.8733 1.29325L13.665 1.55409L13.1425 3.13742L12.3508 2.87575C11.5922 2.62611 10.7986 2.49924 10 2.49992ZM17.4842 3.67825L12.8658 8.29659C13.2802 8.99404 13.426 9.81867 13.2759 10.6159C13.1258 11.4132 12.6901 12.1284 12.0505 12.6274C11.4109 13.1264 10.6112 13.375 9.80136 13.3266C8.99154 13.2782 8.22715 12.9362 7.65147 12.3646C7.0758 11.7929 6.72834 11.031 6.67424 10.2215C6.62014 9.41206 6.86309 8.61065 7.35758 7.9675C7.85206 7.32435 8.56412 6.88361 9.36031 6.72788C10.1565 6.57215 10.9821 6.71213 11.6825 7.12158L16.3058 2.49992L17.4842 3.67825ZM18.4458 6.33492L18.7067 7.12659C19.0058 8.03159 19.1667 8.99742 19.1667 9.99992C19.1667 13.3924 17.3233 16.3541 14.5867 17.9383L13.8658 18.3549L13.0308 16.9133L13.7517 16.4958C14.8916 15.8372 15.8381 14.8902 16.4961 13.75C17.154 12.6097 17.5003 11.3164 17.5 9.99992C17.501 9.20106 17.3744 8.40717 17.125 7.64825L16.8633 6.85659L18.4458 6.33492ZM10 8.33325C9.55797 8.33325 9.13405 8.50885 8.82149 8.82141C8.50893 9.13397 8.33333 9.55789 8.33333 9.99992C8.33333 10.4419 8.50893 10.8659 8.82149 11.1784C9.13405 11.491 9.55797 11.6666 10 11.6666C10.442 11.6666 10.8659 11.491 11.1785 11.1784C11.4911 10.8659 11.6667 10.4419 11.6667 9.99992C11.6667 9.55789 11.4911 9.13397 11.1785 8.82141C10.8659 8.50885 10.442 8.33325 10 8.33325Z" fill="white"/>
</svg>
