<svg width="20" height="20" viewBox="0 0 20 20" fill="none" xmlns="http://www.w3.org/2000/svg">
<path d="M10 2.50016C8.34852 2.4996 6.74303 3.04414 5.43267 4.04929C4.1223 5.05444 3.18034 6.46399 2.75295 8.05921C2.32555 9.65443 2.43663 11.3461 3.06895 12.8717C3.70126 14.3974 4.81945 15.6717 6.25 16.4968L6.97083 16.9135L6.13667 18.3568L5.415 17.9402C4.02159 17.1353 2.86461 15.9778 2.06035 14.584C1.2561 13.1903 0.832912 11.6093 0.833332 10.0002C0.833332 4.93766 4.9375 0.833496 10 0.833496C11.0025 0.833496 11.9683 0.994329 12.8733 1.2935L13.665 1.55433L13.1425 3.13766L12.3508 2.876C11.5922 2.62636 10.7986 2.49948 10 2.50016ZM17.4842 3.6785L12.8658 8.29683C13.2802 8.99428 13.426 9.81892 13.2759 10.6162C13.1258 11.4134 12.6901 12.1286 12.0505 12.6276C11.4109 13.1266 10.6112 13.3753 9.80136 13.3269C8.99154 13.2785 8.22715 12.9364 7.65147 12.3648C7.0758 11.7932 6.72834 11.0312 6.67424 10.2218C6.62014 9.41231 6.86309 8.6109 7.35758 7.96775C7.85206 7.32459 8.56412 6.88385 9.36031 6.72812C10.1565 6.5724 10.9821 6.71238 11.6825 7.12183L16.3058 2.50016L17.4842 3.6785ZM18.4458 6.33516L18.7067 7.12683C19.0058 8.03183 19.1667 8.99766 19.1667 10.0002C19.1667 13.3927 17.3233 16.3543 14.5867 17.9385L13.8658 18.3552L13.0308 16.9135L13.7517 16.496C14.8916 15.8375 15.8381 14.8905 16.4961 13.7502C17.154 12.61 17.5003 11.3166 17.5 10.0002C17.501 9.2013 17.3744 8.40741 17.125 7.6485L16.8633 6.85683L18.4458 6.33516ZM10 8.3335C9.55797 8.3335 9.13405 8.50909 8.82149 8.82165C8.50893 9.13421 8.33333 9.55814 8.33333 10.0002C8.33333 10.4422 8.50893 10.8661 8.82149 11.1787C9.13405 11.4912 9.55797 11.6668 10 11.6668C10.442 11.6668 10.8659 11.4912 11.1785 11.1787C11.4911 10.8661 11.6667 10.4422 11.6667 10.0002C11.6667 9.55814 11.4911 9.13421 11.1785 8.82165C10.8659 8.50909 10.442 8.3335 10 8.3335Z" fill="#373737"/>
</svg>
